<?xml version="1.0" encoding="UTF-8"?>
<svg id="Layer_2" data-name="Layer 2" xmlns="http://www.w3.org/2000/svg" viewBox="0 0 416.65 336.09">
  <defs>
    <style>
      .cls-1 {
        fill: #3a7d4a;
        stroke-width: 0px;
      }
    </style>
  </defs>
  <g id="Layer_1-2" data-name="Layer 1">
    <g>
      <g>
        <path class="cls-1" d="m248.15,177.49l-21.18,11.89c-9.23,15.64-17.81,28.53-25.74,38.69-7.93,10.15-13.3,15.23-16.13,15.23-1.85,0-3.26-.63-4.24-1.87-.98-1.25-1.47-2.52-1.47-3.83,0-5.86,3.26-13.09,9.77-21.66,6.52-8.58,16.67-17.7,30.46-27.36,10.86-20.85,18.46-38.33,22.8-52.45,4.34-14.12,6.52-23.46,6.52-28.02,0-1.95-.81-2.93-2.44-2.93-3.69,0-8.88,3.42-15.56,10.26-6.68,6.84-12.33,15.58-16.94,26.22-4.62,10.64-6.92,19-6.92,25.08,0,1.52.16,2.77.49,3.75,2.61-4.24,4.99-7.03,7.17-8.39,2.17-1.36,3.53-2.09,4.07-2.2.11,0,.16.11.16.33,0,.65-1.47,2.77-4.4,6.35s-5.24,6.54-6.92,8.88c-1.68,2.34-3.64,4.26-5.86,5.78-2.23,1.52-3.99,2.28-5.29,2.28-1.63,0-2.69-.7-3.18-2.12-.49-1.41-.73-3.8-.73-7.17,0-12.27,2.71-24.97,8.14-38.12,5.43-13.14,13.33-23.64,23.7-31.52,10.37-7.87,18.27-11.81,23.7-11.81,3.47,0,6.16,1.09,8.06,3.26,1.9,2.17,2.85,5.21,2.85,9.12,0,3.26-.49,6.68-1.47,10.26l-5.86,19.38c-2.72,9.23-5.38,16.72-7.98,22.48-2.61,5.76-6.57,13.68-11.89,23.78l16.29-8.8v5.21Z"/>
        <path class="cls-1" d="m330.57,173.91c-3.91-7.17-12.33-11.83-25.25-14.01-7.39-1.3-14.17-3.23-20.36-5.78-6.19-2.55-9.99-4.64-11.4-6.27-1.41-1.63-2.12-3.31-2.12-5.05,0-7.93,1.9-15.07,5.7-21.42,3.8-6.35,11.46-11.29,22.97-14.82,11.51-3.53,24-5.29,37.46-5.29,5.65,0,10.12.41,13.44,1.22,3.31.81,5.54,1.68,6.68,2.61,1.14.92,1.71,2.25,1.71,3.99,0,3.26-.46,6-1.38,8.23-.92,2.23-2.01,3.72-3.26,4.48-1.25.76-3.61,1.79-7.09,3.09-3.26,1.09-5.68,2.01-7.25,2.77-1.58.76-4.15,2.28-7.74,4.56-1.52.98-2.61,1.58-3.26,1.79-.54,0-.81-.22-.81-.65,0-.98.87-2.31,2.61-3.99,1.74-1.68,4.13-3.34,7.17-4.97,2.93-1.52,4.4-2.55,4.4-3.09s-2.01-.81-6.03-.81c-14.44,0-26.88,1.9-37.3,5.7-10.42,3.8-15.64,7.98-15.64,12.54,0,.87.3,1.71.9,2.52.6.81,1.28,1.33,2.04,1.55l18.24,5.38c6.08,1.74,11.56,3.75,16.45,6.03,4.89,2.28,8.74,4.56,11.56,6.84,2.82,2.28,4.83,4.54,6.03,6.76,1.19,2.23,1.79,4.59,1.79,7.09,0,4.67-1.87,9.61-5.62,14.82-3.75,5.21-11.13,9.26-22.15,12.13-11.02,2.88-22.34,4.32-33.96,4.32-9.56,0-17.02-.92-22.4-2.77-5.38-1.85-8.06-4.45-8.06-7.82s1.55-6.68,4.64-10.26,6.7-5.38,10.83-5.38c2.71,0,4.07.27,4.07.81,0,.22-.65.54-1.95.98-1.85.76-3.04,1.28-3.58,1.55-.54.27-.81.68-.81,1.22,0,1.09,4.72,1.63,14.17,1.63,12.27,0,21.34-.38,27.2-1.14,5.86-.76,10.99-2.06,15.39-3.91,4.4-1.85,8.39-4.24,11.97-7.17Z"/>
      </g>
      <path class="cls-1" d="m0,110.74c23.62-4.16,43.21-3.91,56.67-2.89,16.41,1.24,30.51,2.32,47.42,9.83,9,4,26.25,11.67,39.03,29.78,11.94,16.91,13.56,33.84,15.04,49.15,2.4,25-2.03,46.72-7.52,63.03-6.37-14.4-17.46-34.97-36.43-55.51-16.83-18.22-34.03-30.13-46.84-37.59,5.25,4.9,11.7,11.44,18.5,19.66,2.72,3.29,7.18,8.88,12.14,16.19,7.65,11.26,9.86,16.84,17.35,30.07,6.15,10.86,10.89,19.24,16.77,27.18,12.33,16.65,25.91,26.3,32.96,31.23,26.95,18.83,53.05,24.03,61.3,25.44,34,5.84,61.6-1.61,75.18-6.36,48.76-17.05,73.49-54.07,79.8-64.19,42.24-67.75,13.39-140.41,12.14-143.41-22.93-55.03-75.78-91.51-133-95.99C194.1,1.16,129.93,39.71,100.91,102.93c5.42-14.13,19-43.75,49.73-68.24C191.22,2.36,235.38-.04,251.84,0c79.03.2,126,58.34,130.11,63.61,30.45,39.03,34.48,81.19,34.7,101.2.13,11.69-.38,75.63-52.04,124.91-8.33,7.95-47.86,43.99-109.29,46.26-76.1,2.81-125.75-48.43-137.74-62.18-1.49-1.7-3.31-3.09-5.34-4.09-23.89-11.75-35.04-25.44-40.8-36.09-1.2-2.21-.78-1.74-9.25-20.82-9.14-20.59-13.72-30.88-17.35-38.17-6.87-13.77-12.61-25.28-22.55-38.74-8.26-11.19-16.34-19.55-22.26-25.15Z"/>
    </g>
  </g>
</svg>