<svg width="55" height="54" viewBox="0 0 55 54" fill="none" xmlns="http://www.w3.org/2000/svg">
<rect width="55" height="54" fill="#1E1E1E"/>
<g clip-path="url(#clip0_0_1)">
<rect width="1440" height="4794" transform="translate(-1205 -1383)" fill="white"/>
<path d="M14.6033 166.734C18.5954 173.717 16.1958 182.703 8.78892 185.838C-2.93027 190.8 -15.3791 193.916 -28.1142 195.049C-45.6975 196.614 -63.4112 194.359 -80.0422 188.44C-96.6731 182.521 -111.828 173.078 -124.47 160.757C-137.112 148.436 -146.941 133.528 -153.285 117.055C-159.629 100.581 -162.338 82.9311 -161.225 65.3133C-160.113 47.6956 -155.206 30.5264 -146.841 14.9815C-138.476 -0.563421 -126.85 -14.1167 -112.759 -24.7503C-102.554 -32.4518 -91.2299 -38.49 -79.21 -42.6705C-71.6131 -45.3128 -63.8064 -40.2576 -62.0838 -32.4009C-60.3613 -24.5442 -65.3968 -16.8837 -72.8906 -13.9616C-80.8465 -10.8593 -88.3608 -6.67176 -95.2137 -1.50027C-105.954 6.60487 -114.816 16.9356 -121.192 28.7843C-127.568 40.633 -131.308 53.7198 -132.156 67.1485C-133.004 80.5771 -130.939 94.0304 -126.103 106.587C-121.268 119.143 -113.776 130.506 -104.14 139.898C-94.5042 149.289 -82.9525 156.487 -70.2759 160.999C-57.5994 165.51 -44.0976 167.229 -30.6951 166.036C-22.1437 165.276 -13.7616 163.342 -5.77987 160.306C1.7382 157.447 10.6112 159.752 14.6033 166.734Z" fill="#FADABF"/>
<text transform="translate(0.821289 5.69446) rotate(-6.65284)" fill="#767676" xml:space="preserve" style="white-space: pre" font-family="Urbanist" font-size="48" font-style="italic" font-weight="500" letter-spacing="0em"><tspan x="0" y="44.64">&#x1f604;</tspan></text>
<text transform="translate(-90.9749 81.842) rotate(-6.65284)" fill="#767676" xml:space="preserve" style="white-space: pre" font-family="Urbanist" font-size="20" font-style="italic" font-weight="500" letter-spacing="0em"><tspan x="0" y="19">Your taste buds will thank you&#x2014;</tspan><tspan x="0" y="43">and so will your </tspan></text>
<text transform="translate(-90.9749 81.842) rotate(-6.65284)" fill="#FF5F5F" xml:space="preserve" style="white-space: pre" font-family="Urbanist" font-size="20" font-style="italic" font-weight="500" letter-spacing="0em"><tspan x="140.605" y="43">dinner guests.</tspan></text>
</g>
<defs>
<clipPath id="clip0_0_1">
<rect width="1440" height="4794" fill="white" transform="translate(-1205 -1383)"/>
</clipPath>
</defs>
</svg>
